<svg width="1840" height="256" version="1.1" viewBox="0 0 1840 256" xml:space="preserve" xmlns="http://www.w3.org/2000/svg">
<style type="text/css">
	.st0{fill:#FFFFFF;}
	.st1{fill:url(#SVGID_1_);}
	.st2{fill:url(#SVGID_2_);}
</style>


<g aria-label="Dungeon Chunk"><path d="m237.56 197.99h-104.99v-139.99h104.99v17.499h17.499v104.99h-17.499zm-34.997-34.997v-69.994h-17.499v69.994z"/><path d="m377.54 197.99h-87.493v-17.499h-17.499v-87.493h52.496v87.493h17.499v-87.493h34.997z"/><path d="m500.03 197.99h-34.997v-87.493h-34.997v87.493h-34.997v-104.99h87.493v17.499h17.499z"/><path d="m605.03 197.99h-69.994v-17.499h34.997v-17.499h-34.997v-17.499h-17.499v-34.997h17.499v-17.499h87.493v87.493h-17.499zm-34.997-52.496v-34.997h-17.499v34.997z"/><path d="m692.52 180.5h52.496v17.499h-87.493v-17.499h-17.499v-69.994h17.499v-17.499h69.994v17.499h17.499v34.997h-52.496zm17.499-52.496v-17.499h-17.499v17.499z"/><path d="m850.01 197.99h-69.994v-17.499h-17.499v-69.994h17.499v-17.499h69.994v17.499h17.499v69.994h-17.499zm-17.499-17.499v-69.994h-17.499v69.994z"/><path d="m989.99 197.99h-34.997v-87.493h-34.997v87.493h-34.997v-104.99h87.493v17.499h17.499z"/><path d="m1182.5 197.99h-69.994v-17.499h-17.499v-104.99h17.499v-17.499h69.994v17.499h17.499v34.997h-34.997v-17.499h-17.499v69.994h17.499v-17.499h34.997v34.997h-17.499z"/><path d="m1322.5 197.99h-34.997v-69.994h-17.498v69.994h-52.496v-122.49h52.496v34.997h34.997v17.499h17.499z"/><path d="m1445 197.99h-87.493v-17.499h-17.498v-87.493h52.496v87.493h17.498v-87.493h34.997z"/><path d="m1567.4 197.99h-34.997v-87.493h-34.997v87.493h-34.997v-104.99h87.493v17.499h17.498z"/><path d="m1707.4 197.99h-34.997v-17.499h-17.499v-17.499h-17.499v34.997h-52.496v-122.49h52.496v69.994h17.499v-17.499h17.499v-17.499h34.997v17.499h-17.499v17.499h-17.498v17.499h34.997z"/></g></svg>
