<svg width="1840" height="256" version="1.1" viewBox="0 0 1840 256" xml:space="preserve" xmlns="http://www.w3.org/2000/svg">
<style type="text/css">
	.st0{fill:#FFFFFF;}
	.st1{fill:url(#SVGID_1_);}
	.st2{fill:url(#SVGID_2_);}
</style>


<g aria-label="Dungeon Chunk"><path d="m244 197.33h-104v-138.67h104v17.333h17.333v104h-17.333zm-34.667-34.667v-69.333h-17.333v69.333z"/><path d="m382.67 197.33h-86.667v-17.333h-17.333v-86.667h52v86.667h17.333v-86.667h34.667z"/><path d="m504 197.33h-34.667v-86.667h-17.333v86.667h-52v-104h86.667v17.333h17.333z"/><path d="m608 197.33h-69.333v-17.333h34.667v-17.333h-34.667v-17.333h-17.333v-34.667h17.333v-17.333h86.667v86.667h-17.333zm-34.667-52v-34.667h-17.333v34.667z"/><path d="m694.67 180h52v17.333h-86.667v-17.333h-17.333v-69.333h17.333v-17.333h69.333v17.333h17.333v34.667h-52zm17.333-52v-17.333h-17.333v17.333z"/><path d="m850.67 197.33h-69.333v-17.333h-17.333v-69.333h17.333v-17.333h69.333v17.333h17.333v69.333h-17.333zm-17.333-17.333v-69.333h-17.333v69.333z"/><path d="m989.33 197.33h-34.667v-86.667h-17.333v86.667h-52v-104h86.667v17.333h17.333z"/><path d="m1180 197.33h-69.333v-17.333h-17.333v-104h17.333v-17.333h69.333v17.333h17.333v34.667h-34.667v-17.333h-17.333v69.333h17.333v-17.333h34.667v34.667h-17.333z"/><path d="m1318.7 197.33h-34.667v-69.333h-17.333v69.333h-52v-121.33h52v34.667h34.667v17.333h17.333z"/><path d="m1440 197.33h-86.667v-17.333h-17.333v-86.667h52v86.667h17.333v-86.667h34.667z"/><path d="m1561.3 197.33h-34.667v-86.667h-17.333v86.667h-52v-104h86.666v17.333h17.333z"/><path d="m1700 197.33h-34.667v-17.333h-17.333v-17.333h-17.333v34.667h-52v-121.33h52v69.333h17.333v-17.333h17.333v-17.333h34.667v17.333h-17.333v17.333h-17.333v17.333h34.667z"/></g></svg>
